<svg id="Layer_1" data-name="Layer 1" xmlns="http://www.w3.org/2000/svg" xmlns:xlink="http://www.w3.org/1999/xlink" viewBox="0 0 416.73 50.81"><defs><style>.cls-1{fill:#231f20;}.cls-2{fill:url(#linear-gradient);}</style><linearGradient id="linear-gradient" y1="25.19" x2="71.59" y2="25.19" gradientUnits="userSpaceOnUse"><stop offset="0" stop-color="#0090d2"/><stop offset="1" stop-color="#002e3f"/></linearGradient></defs><path class="cls-1" d="M77.54,4.53A4.55,4.55,0,0,1,82.22,0,4.47,4.47,0,0,1,86.9,4.39a4.68,4.68,0,0,1-9.36.14Z"/><rect class="cls-1" x="78.77" y="15.41" width="6.91" height="35"/><path class="cls-1" d="M93,46.35l2.87-5.47a24.57,24.57,0,0,0,13.39,4c6.41,0,9.07-1.94,9.07-5.18,0-8.57-24.11-1.16-24.11-16.34,0-6.84,6.12-11.44,15.91-11.44,5,0,10.57,1.29,13.89,3.45l-3,5.47a19.89,19.89,0,0,0-11-3c-6,0-9,2.23-9,5.25,0,9,24.18,1.66,24.18,16.48,0,6.91-6.33,11.3-16.48,11.3C102.43,50.81,96.17,48.87,93,46.35Z"/><path class="cls-1" d="M130.37,31.31c0-11.37,8.42-19.43,20.15-19.43,6.83,0,12.52,2.8,15.54,8.13l-5.25,3.38a11.9,11.9,0,0,0-10.36-5.47c-7.49,0-13.1,5.25-13.1,13.39s5.61,13.46,13.1,13.46a11.9,11.9,0,0,0,10.36-5.47l5.25,3.31c-3,5.32-8.71,8.2-15.54,8.2C138.79,50.81,130.37,42.68,130.37,31.31Z"/><path class="cls-1" d="M170.58,31.31c0-11.37,8.42-19.43,19.87-19.43s19.79,8.06,19.79,19.43-8.35,19.5-19.79,19.5S170.58,42.68,170.58,31.31Zm32.68,0c0-8.14-5.47-13.39-12.81-13.39s-12.89,5.25-12.89,13.39,5.55,13.46,12.89,13.46S203.26,39.44,203.26,31.31Z"/><path class="cls-1" d="M252.72,28.43v22h-6.91V29.22c0-7.48-3.74-11.16-10.29-11.16-7.34,0-12.09,4.4-12.09,12.67V50.38h-6.91V12.24h6.62V18c2.81-3.88,7.7-6.11,13.75-6.11C246.17,11.88,252.72,17.2,252.72,28.43Z"/><path class="cls-1" d="M299.22,28.43v22h-6.91V29.22c0-7.48-3.74-11.16-10.29-11.16-7.34,0-12.09,4.4-12.09,12.67V50.38H263V12.24h6.62V18c2.81-3.88,7.7-6.11,13.75-6.11C292.67,11.88,299.22,17.2,299.22,28.43Z"/><path class="cls-1" d="M344.24,33.61H313.3c.86,6.69,6.26,11.16,13.82,11.16a14.27,14.27,0,0,0,11-4.61l3.81,4.46c-3.45,4-8.71,6.19-15,6.19-12.31,0-20.51-8.13-20.51-19.5s8.13-19.43,19.14-19.43,18.86,7.91,18.86,19.64A19.57,19.57,0,0,1,344.24,33.61Zm-30.94-5h24.47a12.31,12.31,0,0,0-24.47,0Z"/><path class="cls-1" d="M377,50.38,366,35.77,354.81,50.38h-7.7l15.05-19.5L347.83,12.24h7.7L366,26l10.44-13.74H384L369.64,30.88l15.19,19.5Z"/><path class="cls-1" d="M416.73,48.15a13,13,0,0,1-8.35,2.66c-7.7,0-12.09-4.24-12.09-12V17.92h-6.48V12.24h6.48V3.89h6.91v8.35h10.94v5.68H403.2V38.58c0,4.1,2.16,6.4,6,6.4a8.71,8.71,0,0,0,5.4-1.8Z"/><path class="cls-2" d="M23.15,0H44.38c16.2,0,27.21,10.22,27.21,25.19s-11,25.19-27.21,25.19H23.15ZM44,44.12c12.45,0,20.44-7.63,20.44-18.93S56.4,6.26,44,6.26H30.35V44.12ZM23.15,12.24H0v6.35H23.15Zm0,19.1H0V37.7H23.15Z"/></svg>